<?xml version="1.0" standalone="no"?>
<!DOCTYPE svg PUBLIC "-//W3C//DTD SVG 20010904//EN"
 "http://www.w3.org/TR/2001/REC-SVG-20010904/DTD/svg10.dtd">
<svg version="1.0" xmlns="http://www.w3.org/2000/svg"
 width="1024.000000pt" height="1024.000000pt" viewBox="0 0 1024.000000 1024.000000"
 preserveAspectRatio="xMidYMid meet">
<metadata>
Created by potrace 1.14, written by Peter Selinger 2001-2017
</metadata>
<g transform="translate(0.000000,1024.000000) scale(0.100000,-0.100000)"
fill="#000000" stroke="none">
<path d="M2927 10184 c-1 -1 -60 -5 -131 -9 -72 -3 -133 -8 -136 -10 -4 -2
-31 -7 -61 -10 -500 -57 -1010 -313 -1296 -652 -10 -12 -25 -30 -34 -41 -31
-36 -119 -171 -119 -181 0 -5 -3 -11 -8 -13 -12 -5 -103 -196 -104 -218 0 -3
-3 -9 -8 -15 -6 -8 -22 -54 -36 -107 -1 -5 -2 -9 -4 -10 -1 -2 -3 -10 -5 -18
-1 -8 -8 -33 -14 -55 -5 -22 -13 -58 -16 -80 -4 -22 -8 -47 -10 -55 -19 -65
-24 -217 -25 -747 l0 -483 -460 0 -460 0 0 -1040 0 -1040 460 0 460 0 0 -2225
0 -2225 58 -1 c31 0 227 0 435 0 l377 -1 1 -49 c1 -27 2 -52 3 -56 1 -5 5 -30
10 -56 15 -97 104 -317 128 -317 5 0 6 -4 3 -10 -3 -5 -2 -10 2 -10 5 0 17
-15 28 -33 50 -85 275 -267 350 -283 6 -1 28 -10 49 -19 22 -9 47 -19 55 -21
179 -47 337 -50 496 -8 103 28 287 123 335 174 3 3 26 24 52 47 26 24 45 43
43 43 -3 0 3 8 13 18 36 38 62 72 62 82 0 6 4 10 8 10 14 0 99 189 117 259 16
64 23 107 29 186 l3 40 1536 2 1537 1 1 -26 c4 -90 24 -193 51 -267 16 -42 80
-179 87 -185 3 -3 19 -25 36 -48 48 -72 165 -183 234 -222 14 -8 28 -18 31
-21 9 -10 140 -69 154 -69 8 0 17 -4 20 -9 6 -9 19 -12 141 -34 345 -61 715
109 902 416 21 34 38 64 38 67 1 3 6 14 12 25 35 65 72 210 77 305 l4 65 413
2 c228 1 423 2 435 2 l21 1 -1 2225 -1 2225 25 0 c14 0 224 0 468 0 l442 0 0
1040 0 1040 -467 -2 -468 -3 -1 540 c0 297 -4 566 -8 597 -12 99 -14 111 -30
189 -50 239 -174 496 -331 689 -34 41 -199 204 -235 230 -18 14 -38 30 -44 35
-25 23 -105 75 -115 75 -6 0 -11 5 -11 10 0 6 -7 10 -15 10 -8 0 -15 4 -15 9
0 5 -16 15 -35 21 -19 6 -35 16 -35 21 0 6 -4 7 -10 4 -5 -3 -10 -2 -10 3 0 9
-96 56 -103 50 -2 -2 -14 4 -27 13 -14 8 -52 26 -85 38 -33 13 -69 27 -80 33
-12 5 -27 10 -35 12 -8 1 -46 12 -85 24 -38 11 -82 23 -98 26 -15 3 -35 7 -45
10 -9 3 -28 7 -42 10 -14 3 -36 7 -50 10 -13 3 -42 8 -65 11 -22 4 -51 8 -65
10 -14 3 -47 7 -75 10 -27 3 -72 8 -100 12 -40 5 -4522 12 -4528 7z"/>
</g>
</svg>
